<svg width="18" height="19" viewBox="0 0 18 19" fill="none" xmlns="http://www.w3.org/2000/svg">
<g id="Icon">
<path id="Vector" d="M15.9841 6.45547C15.8798 6.35047 15.7556 6.26721 15.6189 6.21048C15.4822 6.15376 15.3355 6.12471 15.1875 6.125H12.9375V5.5625C12.9375 4.51821 12.5227 3.51669 11.7842 2.77827C11.0458 2.03984 10.0443 1.625 9 1.625C7.95571 1.625 6.95419 2.03984 6.21577 2.77827C5.47734 3.51669 5.0625 4.51821 5.0625 5.5625V6.125H2.8125C2.51413 6.125 2.22798 6.24353 2.017 6.45451C1.80603 6.66548 1.6875 6.95163 1.6875 7.25V14.8438C1.6875 16.2148 2.84766 17.375 4.21875 17.375H13.7812C14.4445 17.3752 15.0814 17.1159 15.5559 16.6525C15.7947 16.4247 15.9849 16.1509 16.1149 15.8476C16.2449 15.5442 16.3122 15.2177 16.3125 14.8877V7.25C16.3129 7.10244 16.2842 6.95626 16.2278 6.81989C16.1714 6.68352 16.0886 6.55966 15.9841 6.45547V6.45547ZM11.25 12.3125H9.5625V14C9.5625 14.1492 9.50324 14.2923 9.39775 14.3977C9.29226 14.5032 9.14918 14.5625 9 14.5625C8.85082 14.5625 8.70774 14.5032 8.60225 14.3977C8.49676 14.2923 8.4375 14.1492 8.4375 14V12.3125H6.75C6.60082 12.3125 6.45774 12.2532 6.35225 12.1477C6.24676 12.0423 6.1875 11.8992 6.1875 11.75C6.1875 11.6008 6.24676 11.4577 6.35225 11.3523C6.45774 11.2468 6.60082 11.1875 6.75 11.1875H8.4375V9.5C8.4375 9.35082 8.49676 9.20774 8.60225 9.10225C8.70774 8.99676 8.85082 8.9375 9 8.9375C9.14918 8.9375 9.29226 8.99676 9.39775 9.10225C9.50324 9.20774 9.5625 9.35082 9.5625 9.5V11.1875H11.25C11.3992 11.1875 11.5423 11.2468 11.6477 11.3523C11.7532 11.4577 11.8125 11.6008 11.8125 11.75C11.8125 11.8992 11.7532 12.0423 11.6477 12.1477C11.5423 12.2532 11.3992 12.3125 11.25 12.3125ZM11.8125 6.125H6.1875V5.5625C6.1875 4.81658 6.48382 4.10121 7.01126 3.57376C7.53871 3.04632 8.25408 2.75 9 2.75C9.74592 2.75 10.4613 3.04632 10.9887 3.57376C11.5162 4.10121 11.8125 4.81658 11.8125 5.5625V6.125Z" fill="white"/>
</g>
</svg>
